<svg xmlns="http://www.w3.org/2000/svg" viewBox="0 0 267.51 92.97"><defs><style>.cls-1{fill:blue;}</style></defs><title>eb_logo_blue</title><g id="Layer_2" data-name="Layer 2"><g id="Layer_1-2" data-name="Layer 1"><path class="cls-1" d="M2.83,58H244.64a22.88,22.88,0,0,0,22.87-22l0-14.71a2.62,2.62,0,0,0,0-.28A22.76,22.76,0,0,0,244.77,0H159.58a2.83,2.83,0,0,0-2.83,2.83V20.17A2.83,2.83,0,0,0,159.58,23h75.71l.61,0h.82a6,6,0,0,1,0,12h-.47l-1,0H2.83A2.83,2.83,0,0,0,0,37.83V55.17A2.83,2.83,0,0,0,2.83,58Zm0-35h105.1a2.83,2.83,0,0,0,2.83-2.83V2.83A2.83,2.83,0,0,0,107.93,0H2.83A2.83,2.83,0,0,0,0,2.83V20.17A2.83,2.83,0,0,0,2.83,23Zm263,41.11v0a1.5,1.5,0,0,0-2.37-.69c-1.15.92-2.22,1.77-3.4,2.6a26.14,26.14,0,0,1-12.84,4l-89,0a1.5,1.5,0,0,0-1.5,1.5v20a1.5,1.5,0,0,0,1.5,1.5h85.32a22.88,22.88,0,0,0,22.81-21c0-.17,0-.55,0-1a33.45,33.45,0,0,0-.5-6.55A1.05,1.05,0,0,0,265.86,64.11ZM107.93,70H2.83A2.83,2.83,0,0,0,0,72.8V90.13A2.84,2.84,0,0,0,2.83,93h105.1a2.84,2.84,0,0,0,2.83-2.84V72.8A2.83,2.83,0,0,0,107.93,70Z"/></g></g></svg>