<svg xmlns="http://www.w3.org/2000/svg" viewBox="0 0 110.76 92.97"><defs><style>.cls-1{fill:#fff;}</style></defs><title>hamb_white</title><g id="Layer_2" data-name="Layer 2"><g id="Layer_1-2" data-name="Layer 1"><path class="cls-1" d="M2.83,23h105.1a2.83,2.83,0,0,0,2.83-2.83V2.83A2.83,2.83,0,0,0,107.93,0H20A20,20,0,0,0,0,20v.19A2.83,2.83,0,0,0,2.83,23Z"/><path class="cls-1" d="M19.94,93h88a2.84,2.84,0,0,0,2.83-2.84V72.8A2.83,2.83,0,0,0,107.93,70H2.83A2.83,2.83,0,0,0,0,72.8V73A19.94,19.94,0,0,0,19.94,93Z"/><rect class="cls-1" y="35.04" width="110.76" height="23" rx="2.83" ry="2.83"/></g></g></svg>