<svg xmlns="http://www.w3.org/2000/svg" viewBox="0 0 526.98 448.32"><defs>
<style>.cls-1{fill:#fff;}
</style>
</defs><title>name2_wave2_white</title><g id="Layer_2" data-name="Layer 2"><g id="Layer_1-2" data-name="Layer 1">
<path class="cls-1" d="M185.49,175.37c-8.14-15.59-16.18-33.55-26-48.71,15.48-.41,33.6-.42,49.08-.84q3.72-7,7.17-14l-47.89,1.46c25-13.3,49.27-26.79,72.45-40.46q3.32-9.47,5.87-18.93c-31.07,21.3-65,42.21-100.8,62.73q-2,3.89-4,7.78c13.68,21.92,25.13,44.29,35.67,67.11C181,185.4,181.63,181.47,185.49,175.37Z"/>
<path class="cls-1" d="M261.41,159.12q1.39-6.19,2.65-12.39Q242.63,160,220.55,173c35.53-56.48,63.81-113,64.5-169.51L275.47,4c-.84,62-35,124-75.4,186l9.64-.1Q235.85,174.65,261.41,159.12Z"/>
<path class="cls-1" d="M322.72,158q1.41-6.3,2.66-12.58-21.45,13.42-43.55,26.67C317.46,114.74,345.71,57.37,345.94,0l-9.58.55c-.33,63-34.49,125.9-75,188.83l9.65-.1Q297.15,173.77,322.72,158Z"/>
<path class="cls-1" d="M385.22,171.23c-8.06-16.4-16.76-34.6-26.53-50.56,15.48-.41,34.7.18,50.17-.23q3.74-7.36,7.16-14.72l-47.89,1.46c25-14,49.16-28.1,72.23-42.41q3.22-9.94,5.65-19.87c-30.8,22.3-64.62,44.22-100.36,65.75q-2,4.09-4,8.18c13.69,23.1,25,46.64,35.42,70.64C381.08,183.06,381.32,177.65,385.22,171.23Z"/>
<path class="cls-1" d="M516.13,65.48c-1.76,40.15-12.76,80.65-26.39,121.5q6.6-3.91,13.17-7.86c14.3-44,25-87.66,24-130.88-2.13-2.44-4.3-4.89-6.51-7.32-21.32,38.47-52,76.62-86.38,114.45,21.79-37.6,39.83-75.18,48.67-112.75l-9.63.43c-11.42,48.26-38,96.54-68.27,144.82l9.64-.1C453.07,147.39,489.26,106.62,516.13,65.48Z"/>
<path class="cls-1" d="M232.12,248.41q-4.73-11-9.26-21.8c-24,17.78-47.68,35.39-70.52,52.84,10.81-17.78,22.48-35.56,34.39-53.34l-9.18-.05C147,271.61,118,317.14,101.23,362.65l9.16.38c7.93-21.61,18.62-43.23,30.92-64.84l0,.29c22.84-18.05,46.85-36.28,71.37-54.69q3.57,8.25,7.26,16.56Q226,254.38,232.12,248.41Z"/>
<path class="cls-1" d="M467.47,238.69C430,259.29,393,279.54,357.31,299.42q-2.22,4-4.36,8.06A602.85,602.85,0,0,0,395.69,381c1.95-6.31,1.83-10.7,4.2-17-11.09-17.07-20.34-37.48-29.14-54.13,14.68.39,31.19,2.39,45.87,2.78q3.75-7.25,7.72-14.48l-45.44-1c25-12.78,50.58-25.73,76.46-38.85Q461.33,248.46,467.47,238.69Z"/>
<path class="cls-1" d="M272.26,301.92c-1.47,2.68-2.93,5.36-4.35,8.05a638.86,638.86,0,0,0,37,59.5c-6.69,19.26-11.34,38.52-13.19,57.78a514.91,514.91,0,0,1-42.58-56.8q-4.42,5.79-8.58,11.58A527.8,527.8,0,0,0,295,448.32c1.55-3.89,3.24-7.79,5-11.69h0c3.18-63.68,38-127.32,78.13-190.93l-8.88-.09C336.16,264.68,303.6,283.45,272.26,301.92Zm10.36,4.49c24.69-14.43,50.15-29,76.07-43.84-18.4,30-35.09,60-47.31,89.94C300.8,337,291.34,321.59,282.62,306.41Z"/>
<path class="cls-1" d="M121.43,237.11,118,230.23c-34.65,33.46-68.2,66.6-96.33,99.39C45.16,281.46,80,233.27,112.92,185.05l-9.2,0C64.32,242.73,22.13,300.32,0,357.86l9.17.37q7.58-10,16-20.12,28.85,14.5,59,29.52,3.44-6.47,7.19-12.92l0,0,.08-.05C95.07,315.1,107.4,275.93,121.43,237.11Zm-15.44,15C94.77,284.43,85.35,317,81.74,349.85q-23.68-12-46.54-23.62C56.47,301.7,80.66,277,106,252.09Z"/>
<path class="cls-1" d="M257,238.27c-36.71,40-71.49,79.69-97.53,119l0,0-.05,0q-1.56,6.66-2.76,13.34c23.94-13.91,49.16-28.05,75.35-42.39a306.48,306.48,0,0,0-4.72,42l9.24-2c2.22-46.18,16.33-91.87,32.15-137.09ZM174.2,349.09C196,317.57,223,285.85,251.78,253.92a593.88,593.88,0,0,0-17.32,62.13Q203.47,332.76,174.2,349.09Z"/></g></g></svg>
