<svg xmlns="http://www.w3.org/2000/svg" viewBox="0 0 877.06 473.05"><title>name_1black</title><g id="Layer_2" data-name="Layer 2"><g id="Layer_1-2" data-name="Layer 1"><path d="M380.33,128.54C360.11,152,336.61,175.5,312,199Q273,213.09,233.34,227.22c-6-9.42-11.86-18.83-17.82-28.24C276.66,142.06,331.09,85.15,348.28,28.24,366.49,18.83,383.57,9.41,399.38,0c14.7,9.41,28.37,18.83,41.13,28.24-7.89,28.46-25.09,56.91-47.79,85.37-26.27,10.6-53.46,21.2-81.36,31.81C299.9,157.64,287.69,169.87,275,182.1l20.45-7.47q10.88-10.71,21.18-21.42Q349.15,140.88,380.33,128.54Zm-28-31.81q9-3.74,17.8-7.47c10.11-14.71,18.47-29.43,24.53-44.14q-7.71,3.74-15.65,7.46C372.1,67.3,363,82,352.29,96.73Z"/><path d="M426.74,199q-38.52,14.11-77.8,28.24c-6.24-9.42-12.41-18.83-18.65-28.24C391,140.87,444.72,82.77,459,24.67Q481.94,12.34,502.2,0c-1.87,60.7-51.84,121.4-112.89,182.1q10.15-3.73,20.23-7.47c12-12.12,23.41-24.23,34.06-36.35Q475,125.94,505,113.61C483.12,142.06,455.77,170.52,426.74,199Z"/><path d="M539.9,199q-38.11,14.11-77,28.24c-6.51-9.42-13-18.83-19.47-28.24,59-58.11,111.06-116.21,123.61-174.31Q589.69,12.34,609.59,0c-.1,60.7-48.32,121.4-107.6,182.1q10-3.73,20-7.47c11.6-12.12,22.7-24.23,33-36.35q31.07-12.34,60.66-24.67C594.64,142.06,568.11,170.52,539.9,199Z"/><path d="M715.27,128.54c-18.16,23.48-39.61,47-62.21,70.44q-37.69,14.11-76.16,28.24c-6.79-9.42-13.5-18.83-20.29-28.24C612.79,142.06,662.24,85.15,674.46,28.24,691.85,18.83,708.11,9.41,723.09,0c15.53,9.41,30,18.83,43.6,28.24-5.4,28.46-20.12,56.91-40.33,85.37-25.35,10.6-51.61,21.2-78.59,31.81-10.38,12.22-21.52,24.45-33.11,36.68q9.95-3.73,19.8-7.47,9.94-10.71,19.31-21.42Q685.17,140.88,715.27,128.54ZM684.45,96.73q8.65-3.74,17.15-7.47c8.83-14.71,15.9-29.43,20.67-44.14q-7.38,3.74-15,7.46A240,240,0,0,1,684.45,96.73Z"/><path d="M784.82,28.24c17.12-9.41,33.1-18.83,47.8-28.24,15.81,9.41,30.57,18.83,44.44,28.24-9.32,58.1-57.45,116.2-111.92,174.31q-32.48,12.33-65.51,24.67c58.74-60.7,115.59-121.4,133.51-182.1q-7.27,3.74-14.78,7.46c-17.49,50-60.37,100-107.93,150q-32.65,12.33-65.85,24.67C709.69,160.89,772.55,94.57,784.82,28.24Z"/><path d="M119.5,359.44q8.11,8.43,17,16.88c-16.35,22.83-28.68,45.66-35,68.49C82,454.22,63.34,463.63,45.75,473.05Q21,458.92,0,444.81C17.2,387.89,71.64,331,132.79,274.07l79.07-28.24c5.88,9.41,11.92,18.83,18.25,28.24-24,22.83-46.86,45.66-66.71,68.49Q141.22,351,119.5,359.44Zm30.06-61c-14.23,14-27.79,27.92-40.24,41.88l19.93-7.47c12.79-14,26.61-27.91,41-41.87ZM73.1,386.05A238.63,238.63,0,0,0,50,427.93q8.3-3.74,16.76-7.47a262.66,262.66,0,0,1,24.91-41.87Q82.3,382.33,73.1,386.05Z"/><path d="M205.05,388.33q-9,3.72-17.94,7.46c-10.41,17.53-18.11,35.06-22.22,52.59Q140,460.71,117.28,473.05c2.77-66.33,63-132.65,132.29-199l78.25-28.24c6.15,9.41,12.46,18.83,19.07,28.24-26.61,26.08-51.82,52.15-72.68,78.23q-21.65,8.43-42.76,16.88,8.78,8.43,18.41,16.87c-13.19,20.78-22.82,41.55-27.41,62.33q-24.73,12.33-47.26,24.67C176,444.81,187.17,416.57,205.05,388.33Zm62-89.92C250,315.62,234,332.82,219.84,350l19.46-7.46c14.63-17.2,31-34.41,48.24-51.61Z"/><path d="M301.16,409.1a168.71,168.71,0,0,0-13.7,39.28q-24.54,12.33-46.88,24.67c.81-66.33,59.06-132.65,126.42-199l77.41-28.24c6.43,9.41,13,18.83,19.91,28.24-57.59,58.1-108.19,116.2-119.3,174.31q-24.36,12.33-46.53,24.67c0-23.81,7.32-47.61,19.84-71.41Q309.68,405.36,301.16,409.1ZM350.44,353c16.08-20.67,34.91-41.34,55-62l-20.26,7.46c-19.85,20.67-38.25,41.34-53.72,62Q340.92,356.68,350.44,353Z"/><path d="M560.37,245.83c6.7,9.41,13.57,18.83,20.73,28.24-22,22.83-42.84,45.66-60.66,68.49Q499,351,478,359.44q8.85,8.43,18.51,16.88c-14.34,22.83-24.66,45.66-29,68.49-18.7,9.41-36.5,18.82-53.25,28.24C397,463.63,381,454.22,366.05,444.81a166.7,166.7,0,0,1,10.77-32.46Q404.12,400,433,387.68a211.23,211.23,0,0,0-18.49,40.25q8-3.74,16.09-7.47a222.72,222.72,0,0,1,15.93-33.11c-12.76-10.6-24.43-21.2-35.22-31.81,20.41-27.15,45.67-54.31,72.45-81.47ZM502.7,298.41c-12.49,13.42-24.37,26.84-35.24,40.25l19.31-7.46c11.19-13.42,23.31-26.84,36-40.25Z"/><path d="M617.49,374.37c-14.29,23.48-24.39,47-28.15,70.44-18.42,9.41-35.94,18.82-52.42,28.24-17.59-9.42-33.9-18.83-49.08-28.24C498.35,387.89,546.1,331,600.56,274.07l75.76-28.24c7,9.41,14.12,18.83,21.57,28.24-26.54,28.46-51.4,56.91-70.76,85.37-26,10.6-51.37,21.2-75.93,31.81a200,200,0,0,0-15.38,36.68q7.86-3.74,15.88-7.47A198.41,198.41,0,0,1,560.61,399Q588.32,386.71,617.49,374.37Zm-34.36-31.81q9.47-3.74,19-7.47C613.76,320.38,626.56,305.66,640,291l-19.82,7.46C606.93,313.13,594.4,327.84,583.13,342.56Z"/></g></g></svg>