<svg xmlns="http://www.w3.org/2000/svg" viewBox="0 0 399.71 311.86"><defs><style>.cls-1{fill:#fff;}</style></defs><title>name2_white</title><g id="Layer_2" data-name="Layer 2"><g id="Layer_1-2" data-name="Layer 1"><polygon class="cls-1" points="76.99 114.78 22.53 82.23 68.85 82.23 68.85 72.63 21.07 72.63 76.99 46.13 76.99 33.2 0 74.51 0 79.93 76.99 127.3 76.99 114.78"/><polygon class="cls-1" points="141.39 105.95 136.67 97.55 108.8 114.97 108.8 0 99.17 0 99.17 126.44 108.8 126.44 141.39 105.95"/><polygon class="cls-1" points="202.57 105.95 197.85 97.55 169.99 114.97 169.99 0 160.35 0 160.35 126.44 169.99 126.44 202.57 105.95"/><polygon class="cls-1" points="276.75 114.78 222.3 82.23 268.61 82.23 268.61 72.63 220.84 72.63 276.75 46.13 276.75 33.2 199.76 74.51 199.76 79.93 276.75 127.3 276.75 114.78"/><polygon class="cls-1" points="353.66 48.57 388.5 126.44 396.9 121.52 359.4 37.71 350.99 32.79 313.29 105.54 313.29 32.79 303.66 32.79 303.66 126.44 313.29 126.44 353.66 48.57"/><polygon class="cls-1" points="171.56 183.94 148.09 169.47 111.73 205.44 111.73 169.27 102.54 169.27 102.54 262.15 111.73 262.15 111.73 218.16 111.92 218.35 149.27 181 167.06 191.95 171.56 183.94"/><polygon class="cls-1" points="399.71 176.19 326.25 215.6 326.25 220.78 399.71 265.97 399.71 254.03 347.75 222.97 391.95 222.97 391.95 213.81 346.36 213.81 399.71 188.53 399.71 176.19"/><path class="cls-1" d="M243.4,218.51v5.28l62.86,37.34v37.29l-54.8-35.19L246.64,271l63.69,40.9,4.82-7.71h0v-123h-8.9Zm12.68,2.73,50.18-29.13v58.07Z"/><path class="cls-1" d="M54,177.06l-8-4.69L10,241.78V141.08H.81V261.73H10l7.37-14.21L87.44,266l2.34-8.89h-.06l.06,0Zm-5.48,10.37,29.82,66.64L21.71,239.15Z"/><path class="cls-1" d="M189.78,177.06l-31.72,80,.05,0-.05,0,2.08,8.89,57.05-29.6,12.63,27.41,8.44-1.57-41.38-89.84Zm-20.45,74.18,25.3-63.81,18.85,40.9Z"/></g></g></svg>