<svg xmlns="http://www.w3.org/2000/svg" viewBox="0 0 1530.62 913.84"><defs><style>.cls-1{fill:#f7e4ad;}</style></defs><title>name_1</title><g id="Layer_2" data-name="Layer 2"><g id="Layer_1-2" data-name="Layer 1"><path class="cls-1" d="M663.74,248.31c-35.28,45.36-76.29,90.72-119.3,136.08q-68,27.27-137.22,54.55c-10.41-18.19-20.7-36.37-31.11-54.55C482.82,274.44,577.81,164.5,607.81,54.55,639.59,36.37,669.4,18.18,697,0c25.66,18.18,49.51,36.37,71.78,54.55-13.77,55-43.79,110-83.4,164.92q-68.79,30.72-142,61.45c-20,23.62-41.29,47.24-63.38,70.86q17.92-7.21,35.69-14.42,19-20.7,37-41.39Q609.32,272.15,663.74,248.31ZM614.8,186.86q15.69-7.2,31.07-14.42c17.65-28.43,32.23-56.85,42.81-85.28q-13.45,7.22-27.31,14.42C649.38,130,633.55,158.44,614.8,186.86Z"/><path class="cls-1" d="M744.74,384.39Q677.51,411.66,609,438.94c-10.89-18.19-21.66-36.37-32.55-54.55C682.37,272.14,776.11,159.9,801,47.66Q841.08,23.83,876.42,0c-3.25,117.26-90.47,234.52-197,351.78q17.73-7.21,35.31-14.42c20.86-23.41,40.84-46.82,59.44-70.23Q829,243.3,881.29,219.47C843.14,274.44,795.4,329.41,744.74,384.39Z"/><path class="cls-1" d="M942.22,384.39q-66.51,27.27-134.34,54.55c-11.37-18.19-22.62-36.37-34-54.55,103-112.25,193.83-224.49,215.73-336.73q39.5-23.83,74.22-47.66c-.19,117.26-84.33,234.52-187.79,351.78q17.54-7.21,34.92-14.42c20.25-23.41,39.62-46.82,57.61-70.23q54.21-23.83,105.87-47.66C1037.75,274.44,991.45,329.41,942.22,384.39Z"/><path class="cls-1" d="M1248.28,248.31c-31.7,45.36-69.14,90.72-108.57,136.08q-65.79,27.27-132.91,54.55c-11.85-18.19-23.57-36.37-35.41-54.55,98-109.95,184.34-219.89,205.66-329.84,30.35-18.18,58.72-36.37,84.87-54.55C1289,18.18,1314.3,36.37,1338,54.55c-9.43,55-35.11,110-70.38,164.92-44.24,20.48-90.07,41-137.15,61.45-18.13,23.62-37.57,47.24-57.79,70.86q17.36-7.21,34.55-14.42,17.35-20.7,33.7-41.39Q1195.74,272.15,1248.28,248.31Zm-53.79-61.45q15.12-7.2,29.93-14.42c15.41-28.43,27.74-56.85,36.08-85.28q-12.9,7.22-26.17,14.42C1224.58,130,1211,158.44,1194.49,186.86Z"/><path class="cls-1" d="M1369.66,54.55c29.86-18.18,57.75-36.37,83.42-54.55,27.58,18.18,53.35,36.37,77.54,54.55C1514.36,166.8,1430.36,279,1335.3,391.28q-56.68,23.84-114.33,47.66c102.52-117.26,201.74-234.52,233-351.78q-12.7,7.22-25.79,14.42c-30.54,96.57-105.35,193.14-188.36,289.7q-57,23.84-114.93,47.66C1238.54,310.81,1348.24,182.68,1369.66,54.55Z"/><path class="cls-1" d="M208.54,694.37q14.18,16.3,29.72,32.6c-28.54,44.11-50.07,88.21-61.13,132.31Q126,886.57,79.85,913.84C51.09,895.65,24.56,877.47,0,859.28,30,749.34,125,639.39,231.74,529.45q68.94-27.27,138-54.55c10.25,18.18,20.79,36.37,31.85,54.55-41.84,44.1-81.79,88.21-116.42,132.31Q246.46,678.07,208.54,694.37ZM261,576.48c-24.83,27-48.5,53.93-70.22,80.89q17.33-7.22,34.78-14.42C247.88,616,272,589,297.14,562.06Q279,569.26,261,576.48ZM127.57,745.78c-16.53,27-30.25,53.93-40.37,80.89q14.46-7.2,29.23-14.42c11.3-27,26.06-53.92,43.48-80.89Q143.64,738.58,127.57,745.78Z"/><path class="cls-1" d="M357.86,750.17q-15.78,7.22-31.32,14.43c-18.16,33.86-31.61,67.72-38.78,101.58Q244.29,890,204.68,913.84c4.82-128.13,109.89-256.26,230.87-384.39q68.22-27.27,136.55-54.55c10.74,18.18,21.75,36.37,33.29,54.55C558.94,579.82,515,630.2,478.54,680.57q-37.76,16.3-74.62,32.61,15.33,16.3,32.14,32.6c-23,40.14-39.84,80.27-47.84,120.4Q345,890,305.74,913.84C307.1,859.28,326.65,804.73,357.86,750.17Zm108.2-173.69c-29.72,33.23-57.68,66.47-82.41,99.7q16.91-7.21,34-14.42c25.53-33.23,54.08-66.47,84.19-99.7Q483.9,569.26,466.06,576.48Z"/><path class="cls-1" d="M525.57,790.31c-11,25.29-19.22,50.58-23.9,75.87Q458.85,890,419.86,913.84c1.41-128.13,103.06-256.26,220.62-384.39q67.5-27.27,135.1-54.55c11.22,18.18,22.72,36.37,34.75,54.55C709.82,641.69,621.52,753.94,602.13,866.18Q559.61,890,520.92,913.84c-.07-46,12.77-92,34.62-138Q540.44,783.1,525.57,790.31Zm86-108.49c28.07-39.92,60.93-79.84,96-119.76q-17.7,7.2-35.36,14.42c-34.64,39.92-66.74,79.84-93.73,119.77Q595,689,611.58,681.82Z"/><path class="cls-1" d="M977.94,474.9c11.7,18.18,23.69,36.37,36.19,54.55-38.32,44.1-74.76,88.21-105.87,132.31q-37.43,16.31-74,32.61,15.46,16.3,32.31,32.6c-25,44.11-43,88.21-50.59,132.31-32.63,18.19-63.69,36.37-92.93,54.56q-45.3-27.29-84.2-54.56a344.32,344.32,0,0,1,18.81-62.7q47.61-23.83,98.06-47.66c-13.61,25.92-24.6,51.84-32.27,77.75q13.91-7.2,28.09-14.42a451.51,451.51,0,0,1,27.8-64c-22.27-20.48-42.64-41-61.47-61.45,35.62-52.46,79.7-104.93,126.45-157.39Q911.06,502.18,977.94,474.9ZM877.3,576.48c-21.8,25.92-42.53,51.84-61.49,77.75q16.79-7.2,33.7-14.42C869,613.89,890.18,588,912.28,562.06Q894.76,569.26,877.3,576.48Z"/><path class="cls-1" d="M1077.63,723.21c-24.94,45.36-42.57,90.71-49.13,136.07-32.15,18.19-62.73,36.37-91.48,54.56-30.69-18.19-59.16-36.37-85.65-54.56C869.71,749.34,953,639.39,1048.09,529.45q66-27.27,132.21-54.55c12.18,18.18,24.65,36.37,37.64,54.55-46.32,55-89.7,109.94-123.49,164.92-45.36,20.48-89.65,41-132.51,61.45a411,411,0,0,0-26.83,70.85q13.7-7.2,27.7-14.42a409.67,409.67,0,0,1,15.56-41.38Q1026.72,747,1077.63,723.21Zm-60-61.45q16.5-7.21,33.15-14.42c20.29-28.43,42.64-56.86,66.13-85.28q-17.33,7.2-34.6,14.42C1059.2,604.91,1037.33,633.33,1017.67,661.76Z"/></g></g></svg>