<svg xmlns="http://www.w3.org/2000/svg" viewBox="0 0 478.39 504.26"><title>name2_wave_black</title><g id="Layer_2" data-name="Layer 2"><g id="Layer_1-2" data-name="Layer 1"><path d="M92.14,325.07A347.52,347.52,0,0,1,27,312c18.48-4.21,37-11,55.43-19.6V281.53c-19.06,9.12-38.12,16.24-57.18,20.63,22.31-14.59,44.62-33.6,66.92-55.88V231.44C61.43,264.41,30.72,291,0,308.27v5.64c30.72,13.74,61.43,21.23,92.14,25.53Z"/><path d="M169.22,269.91q-2.82-3.3-5.64-6.58c-11.12,14.6-22.24,28.65-33.36,42v-137q-5.76,4.09-11.53,8v149q5.78-3.08,11.53-6.34C143.22,303.52,156.22,287.08,169.22,269.91Z"/><path d="M242.44,217.94q-2.82-3.49-5.64-6.94c-11.12,15.84-22.24,31.44-33.35,46.66V110.9q-5.77,4.81-11.53,9.57V280.2q5.76-3.92,11.53-7.89C216.44,254.63,229.44,236.43,242.44,217.94Z"/><path d="M331.23,168.93c-21.73-2-43.45-1.69-65.18-.1,18.48-13.8,37-27.28,55.44-39.78V115.49c-19.06,13.1-38.12,27.25-57.19,41.72,22.31-28.83,44.62-57.91,66.93-86.06V52.72C300.51,94.24,269.8,137.33,239.08,179v7.15c30.72-2.47,61.43-3.27,92.15.66Z"/><path d="M423.27,22.81C437.17,57,451.07,93.74,465,133.24q5-4.41,10-8.63C460.06,81,445.1,40.78,430.14,3.47q-5-1.87-10.06-3.47C405,43.49,390,87.16,375,130.64V23.33q-5.76,3.45-11.52,7.09V167.31q5.76-3,11.52-5.84C391.06,115.32,407.17,69,423.27,22.81Z"/><path d="M205.33,344.54c-9.36-.33-18.72-.6-28.08-.9-14.51,23.79-29,46.51-43.53,67.86V368.24q-5.5,2.88-11,5.61V483.74q5.5-2.13,11-4.43V426.7l.23.12c14.9-21.87,29.8-45.2,44.7-69.64l21.3.91Z"/><path d="M478.39,211.62c-29.3,20.27-58.61,46.42-87.91,75.79v7.73c29.3,12.9,58.61,31.91,87.91,59.66V335.75a309,309,0,0,0-62.18-44.45,213.83,213.83,0,0,1,52.89-5.55V271.24a216.05,216.05,0,0,0-54.56,6.51c21.28-18,42.57-33.81,63.85-46.44Z"/><path d="M291.32,338.05v7.28c25.07,3.12,50.15,8.47,75.22,17.73V417.7A344.09,344.09,0,0,0,301,394.8q-2.88,6.81-5.77,13.6A349,349,0,0,1,371.42,436l5.76-13h0V241.25q-5.32,2.22-10.65,4.62C341.47,275.42,316.39,306.7,291.32,338.05Zm15.17-4.61c20-24.4,40-48.52,60.05-71.52V347A318,318,0,0,0,306.49,333.44Z"/><path d="M64.63,406c-3.2-.83-6.4-1.69-9.6-2.61C40.68,432.58,26.33,459.3,12,483.22V377c-3.66.31-7.33.5-11,.59V503.31q5.51.65,11,.95,4.41-7.25,8.82-14.83c28,6.4,55.91,7.4,83.86,5.3q1.39-5.62,2.8-11.3h-.07l.07-.06C93.18,457.3,78.9,431.6,64.63,406Zm-6.56,13.29c11.9,21.65,23.79,43.32,35.69,65.19-22.59,1.26-45.19.3-67.78-4.09Q42,452,58.07,419.27Z"/><path d="M227.13,321.81q-19,64.37-37.95,124.8h0l0,.05q1.24,4.95,2.48,9.92c22.76-24.21,45.52-50.07,68.28-76.33q7.56,14.07,15.11,28.68,5.06-3.74,10.11-7.45c-16.51-32.44-33-62.72-49.53-91.33Q231.39,316,227.13,321.81ZM202.66,432.06q15.14-48.94,30.28-100.41,11.28,19.67,22.56,40.41C237.89,392.54,220.27,412.73,202.66,432.06Z"/></g></g></svg>